<?xml version="1.0" encoding="UTF-8"?>
<svg version="1.1" xmlns="http://www.w3.org/2000/svg" width="369" height="192">
<path d="M0 0 C121.77 0 243.54 0 369 0 C369 59.07 369 118.14 369 179 C362.73254509 175.58138823 356.64193831 172.20126483 350.55957031 168.51806641 C308.81882837 143.76187284 265.88310659 133.07437058 218.203125 144.9453125 C199.46183358 149.74832197 180.98862943 155.50681425 162.5 161.1875 C138.3017374 168.62216658 114.13312673 175.48346168 89 179 C88.27748047 179.1023999 87.55496094 179.2047998 86.81054688 179.31030273 C77.84172794 180.39063774 68.7704406 180.28562139 59.75 180.3125 C58.84992218 180.31578308 57.94984436 180.31906616 57.02249146 180.32244873 C37.6510592 180.34519699 18.84961116 178.71240279 0 174 C0 116.58 0 59.16 0 0 Z " fill="#5E2E8C" transform="translate(0,0)"/>
<path d="M0 0 C3.30688397 2.54568588 6.65035561 5.04233327 9.99609375 7.53662109 C9.33609375 7.86662109 8.67609375 8.19662109 7.99609375 8.53662109 C5.94445596 7.41725766 4.01986696 6.23825927 2.05859375 4.97412109 C-39.14374485 -20.49547732 -83.11876276 -36.06157333 -131.62890625 -25.26806641 C-152.84471981 -20.20966641 -173.66563141 -13.67850012 -194.50390625 -7.27587891 C-218.70216885 0.15878767 -242.87077952 7.02008278 -268.00390625 10.53662109 C-269.08768555 10.69022095 -269.08768555 10.69022095 -270.19335938 10.84692383 C-279.16217831 11.92725884 -288.23346565 11.82224248 -297.25390625 11.84912109 C-298.15398407 11.85240417 -299.05406189 11.85568726 -299.98141479 11.85906982 C-319.35284705 11.88181809 -338.15429509 10.24902388 -357.00390625 5.53662109 C-357.00390625 -2.71337891 -357.00390625 -10.96337891 -357.00390625 -19.46337891 C-344.69892759 -16.10747563 -344.69892759 -16.10747563 -339.21875 -14.34228516 C-319.34770399 -7.99250842 -319.34770399 -7.99250842 -299.00390625 -3.46337891 C-297.79154297 -3.24343262 -297.79154297 -3.24343262 -296.5546875 -3.01904297 C-248.4215765 5.44612217 -205.88725642 -9.04946063 -161.50390625 -26.15087891 C-96.69040707 -51.11565723 -54.80448124 -42.52309473 0 0 Z " fill="#D0CBD4" transform="translate(357.00390625,169.46337890625)"/>
<path d="M0 0 C3.70503641 0.60334309 5.85968148 2.22474237 8.75 4.5625 C9.94882812 5.52349609 9.94882812 5.52349609 11.171875 6.50390625 C12.07679688 7.24447266 12.07679688 7.24447266 13 8 C12.01 8.495 12.01 8.495 11 9 C8.3984375 7.63671875 8.3984375 7.63671875 5.375 5.6875 C4.37210937 5.05199219 3.36921875 4.41648438 2.3359375 3.76171875 C1.56507813 3.18035156 0.79421875 2.59898437 0 2 C0 1.34 0 0.68 0 0 Z " fill="#C0B2D2" transform="translate(354,168)"/>
</svg>
