<svg width="15" height="15" viewBox="0 0 15 15" fill="none" xmlns="http://www.w3.org/2000/svg">
<path d="M14.5873 14.5873C14.0371 15.1376 13.1452 15.1376 12.5949 14.5873L10.1087 12.1011C9.08655 12.7568 7.87832 13.1475 6.57376 13.1475C2.94343 13.1475 0 10.2045 0 6.57373C0 2.94299 2.94343 0 6.57376 0C10.2046 0 13.1475 2.94293 13.1475 6.57373C13.1475 7.87785 12.7563 9.08655 12.1011 10.1092L14.5873 12.5954C15.1376 13.1456 15.1376 14.0371 14.5873 14.5873ZM6.57376 1.8782C3.98066 1.8782 1.87822 3.98016 1.87822 6.5737C1.87822 9.16724 3.98069 11.2692 6.57376 11.2692C9.16726 11.2692 11.2693 9.16724 11.2693 6.5737C11.2693 3.98016 9.16726 1.8782 6.57376 1.8782Z" fill="#949494"/>
</svg>
